<?xml version="1.0" encoding="UTF-8"?>
<!-- Generator: Adobe Illustrator 16.0.3, SVG Export Plug-In . SVG Version: 6.00 Build 0)  -->
<!DOCTYPE svg PUBLIC "-//W3C//DTD SVG 1.1//EN" "http://www.w3.org/Graphics/SVG/1.1/DTD/svg11.dtd">
<svg version="1.1" id="Layer_1" xmlns="http://www.w3.org/2000/svg" xmlns:xlink="http://www.w3.org/1999/xlink" x="0px" y="0px" width="109.84px" height="95.894px" viewBox="0 0 109.84 95.894" enable-background="new 0 0 109.84 95.894" xml:space="preserve">
<g>
	<path fill="#010101" d="M109.441,91.498L57.466,1.465C56.936,0.549,55.964,0,54.92,0s-2.015,0.568-2.546,1.465L0.398,91.498   c-0.531,0.915-0.531,2.032,0,2.93c0.531,0.916,1.502,1.466,2.546,1.466h103.953c1.043,0,2.015-0.566,2.545-1.466   C109.973,93.512,109.973,92.396,109.441,91.498z"/>
	<path id="path1995_1_" fill="#FFFFFF" d="M61.878,79.6c0,3.832-3.106,6.939-6.938,6.939c-3.833,0-6.94-3.107-6.94-6.939   c0-3.833,3.107-6.938,6.94-6.938C58.771,72.659,61.878,75.767,61.878,79.6L61.878,79.6z"/>
	<path id="rect1997_1_" fill="#FFFFFF" d="M54.939,30.878c-3.782,0-6.826,3.109-6.826,6.97l2.018,24.415   c0.385,3.158,0.714,4.948,2.018,5.789c0.851,0.389,1.794,0.607,2.79,0.607c0.99,0,1.93-0.217,2.777-0.603   c1.311-0.84,1.645-2.631,2.03-5.796l2.019-24.415C61.764,33.987,58.721,30.878,54.939,30.878L54.939,30.878z"/>
</g>
</svg>