<?xml version="1.0" standalone="no"?>
<!DOCTYPE svg PUBLIC "-//W3C//DTD SVG 20010904//EN"
 "http://www.w3.org/TR/2001/REC-SVG-20010904/DTD/svg10.dtd">
<svg version="1.0" xmlns="http://www.w3.org/2000/svg"
 width="980.000000pt" height="980.000000pt" viewBox="0 0 980.000000 980.000000"
 preserveAspectRatio="xMidYMid meet">
<metadata>
Created by potrace 1.16, written by Peter Selinger 2001-2019
</metadata>
<g transform="translate(0.000000,980.000000) scale(0.100000,-0.100000)"
 fill="#fff" stroke="none">
<path d="M4560 9789 c-641 -46 -1224 -204 -1795 -484 -514 -253 -932 -551
-1335 -955 -404 -404 -689 -805 -946 -1335 -344 -708 -502 -1445 -481 -2245
24 -874 247 -1638 700 -2395 649 -1084 1694 -1875 2921 -2210 590 -161 1275
-205 1921 -124 739 92 1458 363 2100 792 434 290 856 695 1180 1132 770 1039
1095 2278 934 3565 -86 691 -329 1365 -717 1985 -390 624 -928 1158 -1557
1546 -652 402 -1327 634 -2075 714 -174 19 -674 27 -850 14z m2294 -2445 c242
-62 469 -304 550 -587 113 -391 -4 -841 -277 -1069 -84 -69 -129 -96 -222
-132 -76 -29 -87 -30 -230 -30 -140 0 -155 2 -223 28 -245 92 -425 300 -506
579 -162 561 138 1148 629 1228 67 11 204 2 279 -17z m-3592 -36 c102 -38 174
-85 258 -168 87 -85 147 -170 196 -274 118 -256 122 -594 11 -864 -92 -223
-316 -429 -518 -477 -83 -19 -248 -19 -324 0 -254 65 -471 301 -553 604 -24
88 -26 113 -26 291 0 213 7 261 64 409 75 195 252 391 416 461 92 40 152 50
284 46 104 -2 136 -7 192 -28z m4773 -3067 c80 -36 145 -142 145 -235 0 -75
-118 -458 -202 -656 -287 -676 -799 -1268 -1413 -1637 -420 -252 -861 -400
-1328 -444 -186 -17 -583 -7 -762 20 -803 122 -1519 543 -2048 1205 -176 220
-305 423 -427 671 -97 198 -154 342 -218 555 -86 285 -97 360 -62 418 22 36
94 91 143 109 24 9 773 12 3082 12 2930 1 3052 0 3090 -18z"/>
</g>
</svg>
