<?xml version="1.0" encoding="utf-8"?>
<!-- Svg Vector Icons : http://www.onlinewebfonts.com/icon -->
<!DOCTYPE svg PUBLIC "-//W3C//DTD SVG 1.1//EN" "http://www.w3.org/Graphics/SVG/1.1/DTD/svg11.dtd">
<svg version="1.1" xmlns="http://www.w3.org/2000/svg" xmlns:xlink="http://www.w3.org/1999/xlink" x="0px" y="0px" viewBox="0 0 1000 1000" enable-background="new 0 0 1000 1000" xml:space="preserve">
<metadata> Svg Vector Icons : http://www.onlinewebfonts.com/icon </metadata>
<g><g transform="translate(0.000000,511.000000) scale(0.100000,-0.100000)"><path d="M4436.2,4988.7c-744.5-157.7-1285.3-720.4-1401.3-1458.3c-17.5-118.2-21.9-650.3-17.5-1937.8l8.8-1773.6l50.4-173l52.5-170.8l1694.7,1692.6l1696.9,1694.7l-10.9,350.3c-13.1,462-78.8,698.5-278.1,1002.8c-240.9,370-608.7,637.2-1029.1,746.7C5009.9,5012.7,4617.9,5025.9,4436.2,4988.7z"/><path d="M4753.7,114.6L1250.4-3388.7l240.9-240.8c131.4-131.4,249.6-240.8,262.7-240.8s317.5,295.6,678.8,656.9l654.7,654.7l155.5-85.4c188.3-102.9,475.1-219,674.4-273.7l146.7-39.4v-564.9v-567.1h-700.7h-700.7v-350.3V-4790h2102h2102v350.3v350.3H6166h-700.7v564.9v564.9l173,50.4c236.5,67.9,505.8,181.7,689.7,289c928.4,545.2,1506.4,1467,1580.9,2526.7l15.3,208h-348.1h-350.3l-26.3-245.2c-54.7-521.1-249.6-972.2-591.2-1368.5c-367.9-429.1-937.1-731.3-1526.2-816.7c-442.3-61.3-978.7,21.9-1357.5,214.6l-120.4,59.1l260.6,260.6l260.6,260.5l183.9-52.5c146.7-41.6,234.3-52.6,455.4-52.6c381,0,650.3,78.8,948.1,273.7c378.8,245.2,619.6,582.4,753.2,1051c26.3,89.8,37.2,254,43.8,648.1l10.9,527.7l1114.5,1114.5c613.1,613.1,1114.5,1125.4,1114.5,1136.4c0,21.9-459.8,492.7-481.7,492.7C8261.4,3618,6680.5,2041.5,4753.7,114.6z"/><path d="M1620.4-97.7c17.5-254,76.6-554,157.7-788.2c61.3-186.1,260.6-606.5,302.2-639.3c19.7-15.3,98.5,50.4,275.9,227.7l247.4,249.6l-76.6,170.8c-43.8,94.2-94.1,225.5-113.8,291.2c-46,151.1-100.7,486.1-100.7,608.7v92h-352.5h-354.7L1620.4-97.7z"/></g></g>
</svg>